<svg xmlns="http://www.w3.org/2000/svg" viewBox="0 0 64 64">
  <rect width="64" height="64" rx="10" fill="#070405"/>
  <path d="M9 17c8 0 13 2 18 6 4 3 9 4 14 1 3-2 5-5 4-8-.7-2.6-4-3-5.7-1.4-1.7 1.7-.8 4.8 1.7 4.3 1.8-.4 2.6-2 2-3.4" fill="none" stroke="#EBCACA" stroke-width="2.4" stroke-linecap="round"/>
  <path d="M55 17c-8 0-13 2-18 6-4 3-9 4-14 1-3-2-5-5-4-8 .7-2.6 4-3 5.7-1.4 1.7 1.7.8 4.8-1.7 4.3-1.8-.4-2.6-2-2-3.4" fill="none" stroke="#EBCACA" stroke-width="2.4" stroke-linecap="round"/>
  <path d="M32 18c2.8 4 6.5 6.2 11 6.8-4.6 1.1-8 3.7-11 7.6-3-3.9-6.4-6.5-11-7.6 4.5-.6 8.2-2.8 11-6.8Z" fill="#EBCACA"/>
  <circle cx="32" cy="25" r="2.1" fill="#070405"/>
  <text x="32" y="51" fill="#EBCACA" font-family="Georgia, 'Times New Roman', serif" font-size="19" font-weight="700" text-anchor="middle" letter-spacing="-2">GL</text>
</svg>
